<svg width="13" height="18" viewBox="0 0 13 18" fill="none" xmlns="http://www.w3.org/2000/svg">
<g clip-path="url(#clip0_302_153)">
<path fill-rule="evenodd" clip-rule="evenodd" d="M6.5 0C10.0899 0 13 2.97573 13 6.64572C13 8.23405 12.4546 9.69257 11.5444 10.8361L6.54408 18L1.24182 10.5528C0.460587 9.4555 0 8.10536 0 6.64572C0 2.97573 2.91007 0 6.5 0ZM6.5 2.73866C8.6101 2.73866 10.3213 4.48843 10.3213 6.64572C10.3213 8.80301 8.6101 10.5528 6.5 10.5528C4.3899 10.5528 2.67867 8.80301 2.67867 6.64572C2.67867 4.48843 4.3899 2.73866 6.5 2.73866Z" fill="#949494"/>
</g>
<defs>
<clipPath id="clip0_302_153">
<rect width="13" height="18" fill="white"/>
</clipPath>
</defs>
</svg>
