<svg width="14" height="14" viewBox="0 0 14 14" fill="none" xmlns="http://www.w3.org/2000/svg">
<g clip-path="url(#clip0_228_4467)">
<path d="M9.38974e-05 3.25954C-0.00621146 2.33798 0.304853 1.56248 0.991086 0.942496C1.24015 0.717622 1.47345 0.47068 1.73827 0.265772C2.26057 -0.137741 2.77971 -0.0778447 3.22949 0.410784C3.26207 0.446512 3.29464 0.482239 3.32302 0.520069C3.80643 1.17893 4.30035 1.82938 4.768 2.49875C5.17995 3.08826 5.14422 3.46235 4.67131 4.00772C4.55677 4.14117 4.42541 4.25992 4.3014 4.38601C4.15533 4.53418 4.00084 4.67604 3.86318 4.83051C3.2463 5.52405 3.21162 5.8519 3.76544 6.60323C4.73962 7.92726 5.89035 9.08316 7.19031 10.0877C7.36686 10.2233 7.56863 10.3263 7.76199 10.4398C8.17289 10.6804 8.57013 10.6268 8.92218 10.3336C9.21643 10.0888 9.48651 9.81242 9.75554 9.53816C10.4912 8.78893 10.8548 8.75635 11.7081 9.37738C12.2913 9.80191 12.8788 10.218 13.4568 10.6489C14.0863 11.1186 14.1745 11.6923 13.6817 12.2965C13.3685 12.6801 13.0217 13.0416 12.6539 13.3715C12.0423 13.9211 11.2835 14.0251 10.4954 13.9915C9.44762 13.9474 8.49026 13.5859 7.57283 13.1183C5.61502 12.1221 3.98823 10.7161 2.5979 9.02641C1.64474 7.86736 0.85447 6.61164 0.371059 5.18043C0.263868 4.86308 0.174542 4.53733 0.110438 4.20843C0.0515877 3.89844 0.0358243 3.57689 9.38974e-05 3.25954Z" fill="#949494"/>
</g>
<defs>
<clipPath id="clip0_228_4467">
<rect width="14" height="14" fill="white"/>
</clipPath>
</defs>
</svg>
