<svg width="13" height="15" viewBox="0 0 13 15" fill="none" xmlns="http://www.w3.org/2000/svg">
<g clip-path="url(#clip0_228_4464)">
<path d="M0 14.9273C0.0412698 13.5023 0.0189618 12.0891 0.13831 10.6887C0.285543 8.96484 1.64745 7.67344 3.29824 7.64531C5.4387 7.60898 7.58027 7.60664 9.72072 7.64883C11.405 7.68164 12.7736 9.06328 12.9632 10.8316C13.0011 11.1855 12.9967 11.5453 12.9989 11.9016C13.0033 12.8988 13 13.8973 13 14.8805C12.6308 15.0059 0.725011 15.0527 0 14.9273Z" fill="#959595"/>
<path d="M3.27898 3.46523C3.13733 1.63594 4.79481 0.00234275 6.49803 -9.99478e-07C8.09417 -0.00234475 9.83197 1.45898 9.80408 3.47344C9.77397 5.65781 8.12763 6.93633 6.43334 6.93047C4.6487 6.92344 3.15517 5.29922 3.27787 3.46523H3.27898Z" fill="#959595"/>
</g>
<defs>
<clipPath id="clip0_228_4464">
<rect width="13" height="15" fill="white"/>
</clipPath>
</defs>
</svg>
