<svg width="20" height="13" viewBox="0 0 20 13" fill="none" xmlns="http://www.w3.org/2000/svg">
<g clip-path="url(#clip0_310_608)">
<path fill-rule="evenodd" clip-rule="evenodd" d="M1.31748 0.220946C1.26335 0.356722 1.29533 0.506077 1.40113 0.607292C1.59672 0.793676 1.79231 0.980061 1.9879 1.16521C2.81823 1.95025 3.65226 2.72911 4.48875 3.50674C5.34492 4.30289 6.20232 5.0978 7.06095 5.89024C7.35495 6.16179 7.64895 6.43211 7.94295 6.70243C8.07334 6.82216 8.20128 6.94559 8.33659 7.06039C8.81511 7.46278 9.07713 7.75161 9.75001 7.74668C10.3232 7.74297 10.7329 7.46155 11.1327 7.0789C11.8584 6.38397 12.6568 5.76927 13.3617 5.05213L16.6277 1.98234L16.6412 1.96876C16.7753 1.82805 16.9229 1.69844 17.0668 1.5676C17.2833 1.37134 17.501 1.17632 17.7176 0.980061C17.8529 0.857862 17.9869 0.735663 18.121 0.612229C18.2293 0.512248 18.2637 0.36166 18.2096 0.224649C18.1567 0.0876377 18.0288 0 17.8824 0H1.64346C1.49831 0 1.3716 0.085169 1.31748 0.220946Z" fill="#515151"/>
<path fill-rule="evenodd" clip-rule="evenodd" d="M0 1.46639L0.00984103 11.4559C0.00984103 11.5978 0.0910295 11.7212 0.220193 11.778C0.349357 11.8348 0.495742 11.8101 0.599073 11.7151L0.772521 11.5558C1.28671 11.0806 1.79722 10.6005 2.30649 10.1203C3.08762 9.38464 3.86137 8.64034 4.64866 7.91084C4.9119 7.66768 5.16408 7.41094 5.43471 7.17642L5.44824 7.16407L5.92553 6.70367C5.99688 6.63454 6.03378 6.54567 6.03378 6.44569C6.03378 6.34571 5.99319 6.25807 5.92061 6.19018L5.83204 6.10872C5.70411 5.98899 5.57494 5.86926 5.44455 5.752C5.0915 5.43601 4.74953 5.10767 4.40509 4.78181C3.84907 4.25722 3.29428 3.73263 2.73827 3.20803C2.14288 2.64765 1.5475 2.08726 0.945969 1.53428L0.585541 1.20595C0.48098 1.1109 0.335825 1.08868 0.207892 1.14546C0.0799584 1.20224 0 1.32568 0 1.46639Z" fill="#515151"/>
<path fill-rule="evenodd" clip-rule="evenodd" d="M6.6968 7.33688L2.14163 11.6237L2.13917 11.6262C1.88823 11.8706 1.62498 12.1002 1.36788 12.3359L1.3113 12.3878C1.20305 12.4878 1.1686 12.6383 1.2215 12.7754C1.27439 12.9124 1.40233 13 1.54871 13L17.9389 12.9901C18.0853 12.9901 18.212 12.9037 18.2662 12.7667C18.3203 12.6297 18.2858 12.4804 18.1788 12.3804L18.1112 12.3174C17.8479 12.0718 17.5736 11.8385 17.319 11.5842C17.0631 11.3287 16.7888 11.093 16.5329 10.8375C16.4062 10.7103 16.2684 10.5943 16.1319 10.477C15.4369 9.88084 14.8095 9.21307 14.128 8.60331C13.9939 8.48358 13.8734 8.34657 13.7381 8.22684L12.7884 7.33935C12.6555 7.21468 12.4501 7.21221 12.3148 7.33441C12.2644 7.38008 12.2152 7.42699 12.166 7.47389C11.9728 7.65781 11.7809 7.84419 11.5755 8.01453C11.0416 8.45395 10.4536 8.74896 9.74998 8.75143C9.03036 8.7539 8.4362 8.45889 7.89249 8.00342C7.68459 7.83062 7.49392 7.63929 7.29833 7.45168C7.25651 7.41218 7.21468 7.37144 7.17163 7.33318C7.03632 7.20975 6.82965 7.21221 6.69557 7.33812L6.6968 7.33688Z" fill="#515151"/>
<path fill-rule="evenodd" clip-rule="evenodd" d="M17.9919 2.06012L13.5782 6.21982C13.5056 6.28894 13.4675 6.37782 13.4675 6.4778C13.4675 6.57778 13.5068 6.66665 13.5806 6.73577L13.6729 6.82218C13.7984 6.94067 13.9251 7.05793 14.0542 7.17273C14.3249 7.41219 14.5832 7.66769 14.8526 7.90962C14.9867 8.03059 15.106 8.16636 15.2413 8.28733C15.5292 8.54407 15.8084 8.80945 16.0889 9.0736C16.5096 9.46982 16.929 9.86728 17.3498 10.2635C17.8234 10.7103 18.297 11.1572 18.7742 11.6003L18.912 11.7274C19.0166 11.8237 19.1617 11.8471 19.2909 11.7904C19.4201 11.7336 19.5012 11.6089 19.5012 11.467L19.4902 1.46146C19.4902 1.31952 19.409 1.19608 19.2798 1.1393C19.1507 1.08252 19.0043 1.10721 18.9009 1.20349L18.7583 1.3368C18.5048 1.57502 18.26 1.82312 18.0005 2.05518L17.9943 2.06135L17.9919 2.06012Z" fill="#515151"/>
</g>
<defs>
<clipPath id="clip0_310_608">
<rect width="19.5" height="13" fill="white"/>
</clipPath>
</defs>
</svg>
