<svg width="18" height="18" viewBox="0 0 18 18" fill="none" xmlns="http://www.w3.org/2000/svg">
<path d="M8.77836 1.83371C11.1223 1.83371 11.4001 1.84234 12.3261 1.88546C13.1821 1.92427 13.6472 2.06766 13.9562 2.1884C14.3664 2.34796 14.6582 2.53878 14.9651 2.84603C15.272 3.15329 15.4625 3.44653 15.6219 3.8562C15.7425 4.16561 15.8846 4.63135 15.9244 5.48843C15.9664 6.41558 15.9761 6.69373 15.9761 9.04072C15.9761 11.3877 15.9675 11.6659 15.9244 12.593C15.8857 13.4501 15.7425 13.9158 15.6219 14.2252C15.4625 14.636 15.272 14.9282 14.9651 15.2354C14.6582 15.5427 14.3654 15.7335 13.9562 15.893C13.6472 16.0138 13.1821 16.1561 12.3261 16.196C11.4001 16.238 11.1234 16.2477 8.77836 16.2477C6.4333 16.2477 6.15659 16.2391 5.23062 16.196C4.37464 16.1572 3.90951 16.0138 3.60049 15.893C3.19027 15.7335 2.89848 15.5427 2.59162 15.2354C2.28476 14.9282 2.09419 14.6349 1.93484 14.2252C1.81424 13.9158 1.67212 13.4501 1.63228 12.593C1.59029 11.6659 1.5806 11.3877 1.5806 9.04072C1.5806 6.69373 1.58921 6.41558 1.63228 5.48843C1.67104 4.63135 1.81424 4.16561 1.93484 3.8562C2.09419 3.44545 2.28476 3.15329 2.59162 2.84603C2.89848 2.53878 3.19135 2.34796 3.60049 2.1884C3.90951 2.06766 4.37464 1.92535 5.23062 1.88546C6.15659 1.84341 6.43438 1.83371 8.77836 1.83371ZM8.77836 0.25C6.39454 0.25 6.09522 0.259703 5.15848 0.302826C4.22391 0.34595 3.5865 0.493648 3.02769 0.711421C2.45058 0.935664 1.96068 1.23645 1.47293 1.72482C0.985183 2.2132 0.684783 2.70373 0.460829 3.28158C0.243335 3.84111 0.0958266 4.47934 0.0527584 5.41512C0.00969033 6.35305 0 6.65168 0 9.03965C0 11.4276 0.00969033 11.7262 0.0527584 12.6642C0.0958266 13.6 0.243335 14.2382 0.460829 14.7977C0.684783 15.3756 0.985183 15.8661 1.47293 16.3545C1.96068 16.8428 2.45058 17.1436 3.02769 17.3679C3.5865 17.5856 4.22391 17.7333 5.15848 17.7765C6.09522 17.8196 6.39346 17.8293 8.77836 17.8293C11.1633 17.8293 11.4615 17.8196 12.3982 17.7765C13.3328 17.7333 13.9702 17.5856 14.529 17.3679C15.1061 17.1436 15.596 16.8428 16.0838 16.3545C16.5715 15.8661 16.8719 15.3756 17.0959 14.7977C17.3134 14.2382 17.4609 13.6 17.504 12.6642C17.547 11.7262 17.5567 11.4276 17.5567 9.03965C17.5567 6.65168 17.547 6.35305 17.504 5.41512C17.4609 4.47934 17.3134 3.84111 17.0959 3.28158C16.8719 2.70373 16.5715 2.2132 16.0838 1.72482C15.596 1.23645 15.1061 0.935664 14.529 0.711421C13.9702 0.493648 13.3328 0.34595 12.3982 0.302826C11.4615 0.259703 11.1633 0.25 8.77836 0.25Z" fill="#949494"/>
<path d="M8.77842 4.52588C6.28908 4.52588 4.27026 6.54729 4.27026 9.03983C4.27026 11.5324 6.28801 13.5538 8.77842 13.5538C11.2688 13.5538 13.2866 11.5334 13.2866 9.03983C13.2866 6.54621 11.2688 4.52588 8.77842 4.52588ZM8.77842 11.9701C7.16229 11.9701 5.85194 10.658 5.85194 9.03983C5.85194 7.42162 7.16229 6.10959 8.77842 6.10959C10.3946 6.10959 11.7049 7.42162 11.7049 9.03983C11.7049 10.658 10.3946 11.9701 8.77842 11.9701Z" fill="#949494"/>
<path d="M13.4641 5.4022C14.0457 5.4022 14.5172 4.93014 14.5172 4.34783C14.5172 3.76551 14.0457 3.29346 13.4641 3.29346C12.8826 3.29346 12.4111 3.76551 12.4111 4.34783C12.4111 4.93014 12.8826 5.4022 13.4641 5.4022Z" fill="#949494"/>
</svg>
