<svg width="16" height="21" viewBox="0 0 16 21" fill="none" xmlns="http://www.w3.org/2000/svg">
<g clip-path="url(#clip0_310_619)">
<path fill-rule="evenodd" clip-rule="evenodd" d="M8 0C12.4184 0 16 3.47168 16 7.75334C16 9.6064 15.3287 11.308 14.2085 12.6421L8.05425 21L1.52839 12.3116C0.566876 11.0314 0 9.45626 0 7.75334C0 3.47168 3.58162 0 8 0ZM8 3.19511C10.597 3.19511 12.7032 5.2365 12.7032 7.75334C12.7032 10.2702 10.597 12.3116 8 12.3116C5.40295 12.3116 3.29683 10.2702 3.29683 7.75334C3.29683 5.2365 5.40295 3.19511 8 3.19511Z" fill="#515151"/>
</g>
<defs>
<clipPath id="clip0_310_619">
<rect width="16" height="21" fill="white"/>
</clipPath>
</defs>
</svg>
