<svg width="16" height="14" viewBox="0 0 16 14" fill="none" xmlns="http://www.w3.org/2000/svg">
<g clip-path="url(#clip0_228_4418)">
<path d="M2.27873 3.93644C2.66379 3.93644 2.97567 3.6479 2.97567 3.29165C2.97567 2.18745 3.94616 1.28958 5.13967 1.28958C6.33318 1.28958 7.30366 2.18745 7.30366 3.29165V7.43443H5.52647C5.24421 7.43443 4.98982 7.58757 4.87483 7.82614C4.75983 8.06471 4.80862 8.34197 4.99679 8.53541L7.47093 11.071C7.60683 11.2097 7.79849 11.2887 8.0006 11.2887C8.20272 11.2887 8.39438 11.2097 8.53028 11.071L11.0044 8.53541C11.1926 8.34197 11.2414 8.0631 11.1264 7.82614C11.0114 7.58757 10.757 7.43443 10.4747 7.43443H8.69754V3.29165C8.6958 1.47657 7.09981 0 5.13967 0C3.17952 0 1.58179 1.47657 1.58179 3.29165C1.58179 3.6479 1.89367 3.93644 2.27873 3.93644Z" fill="white"/>
<path d="M14.4737 4.72147H10.7102C10.3252 4.72147 10.0133 5.01002 10.0133 5.36626C10.0133 5.72251 10.3252 6.01105 10.7102 6.01105H14.4737C14.5451 6.01105 14.6044 6.06586 14.6044 6.13195V12.5895C14.6044 12.6572 14.5451 12.7104 14.4737 12.7104H1.52456C1.45138 12.7104 1.39388 12.6556 1.39388 12.5895V6.13195C1.39388 6.06425 1.45312 6.01105 1.52456 6.01105H5.28803C5.67309 6.01105 5.98497 5.72251 5.98497 5.36626C5.98497 5.01002 5.67309 4.72147 5.28803 4.72147H1.52456C0.683001 4.72147 0 5.35498 0 6.13195V12.5895C0 13.3681 0.684743 14 1.52456 14H14.4737C15.3153 14 15.9983 13.3665 15.9983 12.5895V6.13195C15.9983 5.35337 15.3135 4.72147 14.4737 4.72147Z" fill="white"/>
</g>
<defs>
<clipPath id="clip0_228_4418">
<rect width="16" height="14" fill="white"/>
</clipPath>
</defs>
</svg>
