<svg width="12" height="23" viewBox="0 0 12 23" fill="none" xmlns="http://www.w3.org/2000/svg">
<g clip-path="url(#clip0_310_604)">
<path fill-rule="evenodd" clip-rule="evenodd" d="M5.75929 20.2087C6.34333 20.0534 6.83305 20.4657 6.9443 20.9265C7.09182 21.5341 6.68311 21.9973 6.24297 22.1137C4.99992 22.4411 4.44853 20.5567 5.75929 20.2099V20.2087ZM1.01927 3.53981V16.943C1.01927 19.1549 0.787104 19.0785 2.20427 19.0785C2.99629 19.0785 10.3482 19.1149 10.5961 19.0676C11.1112 18.9681 10.9794 18.3048 10.9794 17.7907V4.38744C10.9794 3.86844 11.0132 3.22817 10.9794 2.72492C10.9407 2.15256 10.3228 2.25806 9.79315 2.25806C8.98541 2.25806 1.68553 2.22289 1.41951 2.26655C0.887467 2.35507 1.01927 3.01353 1.01927 3.5386V3.53981ZM4.73511 0.853833C4.84394 0.800477 6.91649 0.799264 7.15349 0.822304C7.4449 0.851407 7.45337 1.14608 7.26715 1.22975L4.84756 1.25279C4.59726 1.23339 4.50657 0.966607 4.73511 0.853833ZM1.7605 0.0413688C1.06885 0.146868 0.661348 0.44275 0.383235 0.827155C-0.00491542 1.36556 0.00717648 1.8397 0.00717648 2.63034V20.1044C0.00717648 20.8501 -0.0702117 21.3825 0.27078 21.9864C0.505363 22.4011 0.918906 22.7734 1.53076 22.9153C2.01806 23.028 7.11963 22.9662 8.0495 22.9662C9.47513 22.9662 10.8331 23.2524 11.6154 22.161C12.0169 21.6008 11.9927 21.1679 11.9927 20.3566V2.88257C11.9927 2.14529 12.0676 1.58748 11.7291 1.00056C11.4836 0.573714 11.0568 0.201436 10.4618 0.070472C9.95881 -0.0398776 4.88989 0.0219667 3.94793 0.0219667C3.35663 0.0219667 2.27924 -0.0374523 1.75929 0.0413688H1.7605Z" fill="#515151"/>
</g>
<defs>
<clipPath id="clip0_310_604">
<rect width="12" height="23" fill="white"/>
</clipPath>
</defs>
</svg>
