<svg width="16" height="18" viewBox="0 0 16 18" fill="none" xmlns="http://www.w3.org/2000/svg">
<g clip-path="url(#clip0_310_629)">
<path fill-rule="evenodd" clip-rule="evenodd" d="M7.99944 18H2.30787C2.30787 18 -0.477514 17.774 0.0706734 13.8753C0.307727 12.6285 0.62228 11.3926 1.02117 10.6425C1.77678 9.22106 3.25608 8.95576 4.02993 8.91864C5.10579 9.77677 6.48936 10.2932 7.99944 10.2932C9.50952 10.2932 10.8931 9.77677 11.969 8.91864C12.7428 8.95576 14.2221 9.22215 14.9777 10.6425C15.3766 11.3915 15.6912 12.6274 15.9282 13.8753C16.4764 17.774 13.691 18 13.691 18H7.99944Z" fill="#515151"/>
<path fill-rule="evenodd" clip-rule="evenodd" d="M7.99946 0C10.5079 0 12.5411 1.94772 12.5411 4.34961C12.5411 6.7515 10.5079 8.69922 7.99946 8.69922C5.49102 8.69922 3.45782 6.75259 3.45782 4.34961C3.45782 1.94662 5.49216 0 7.99946 0Z" fill="#515151"/>
</g>
<defs>
<clipPath id="clip0_310_629">
<rect width="16" height="18" fill="white"/>
</clipPath>
</defs>
</svg>
