<svg width="20" height="20" viewBox="0 0 20 20" fill="none" xmlns="http://www.w3.org/2000/svg">
<path d="M7.5175 18.5417C7.24123 18.5428 6.97584 18.4341 6.77971 18.2395C6.58358 18.0449 6.47277 17.7804 6.47167 17.5042C6.47056 17.2279 6.57925 16.9625 6.77382 16.7664C6.96839 16.5702 7.2329 16.4594 7.50917 16.4583H7.5175C7.79377 16.4583 8.05872 16.5681 8.25407 16.7634C8.44942 16.9588 8.55917 17.2237 8.55917 17.5C8.55917 17.7763 8.44942 18.0412 8.25407 18.2366C8.05872 18.4319 7.79377 18.5417 7.5175 18.5417ZM15.2258 17.5C15.2258 17.2237 15.1161 16.9588 14.9207 16.7634C14.7254 16.5681 14.4604 16.4583 14.1842 16.4583H14.1758C13.9702 16.46 13.7696 16.5225 13.5994 16.6379C13.4292 16.7534 13.297 16.9166 13.2194 17.1071C13.1419 17.2976 13.1224 17.5068 13.1635 17.7083C13.2047 17.9098 13.3045 18.0946 13.4505 18.2394C13.5965 18.3843 13.7822 18.4827 13.984 18.5222C14.1858 18.5617 14.3948 18.5406 14.5847 18.4615C14.7746 18.3825 14.9367 18.2489 15.0508 18.0778C15.1649 17.9067 15.2258 17.7057 15.2258 17.5ZM17.4667 6.96665L16.625 12.1167C16.6142 12.4185 16.54 12.7146 16.4071 12.9858C16.2741 13.257 16.0856 13.4972 15.8536 13.6906C15.6217 13.884 15.3515 14.0264 15.0609 14.1084C14.7702 14.1905 14.4655 14.2103 14.1667 14.1667H7.275C6.87315 14.1676 6.48455 14.023 6.18118 13.7594C5.87781 13.4959 5.68022 13.1314 5.625 12.7333L4.37417 4.02665C4.34148 3.77637 4.21852 3.54663 4.0284 3.3806C3.83828 3.21457 3.59408 3.12367 3.34167 3.12499H3.125C2.95924 3.12499 2.80027 3.05914 2.68306 2.94193C2.56585 2.82472 2.5 2.66575 2.5 2.49999C2.5 2.33423 2.56585 2.17525 2.68306 2.05804C2.80027 1.94083 2.95924 1.87499 3.125 1.87499H3.34167C3.89464 1.87144 4.42995 2.06949 4.84746 2.43208C5.26496 2.79468 5.53605 3.29697 5.61 3.84499L5.78417 4.99999H15.8333C16.0771 5.00088 16.3177 5.05523 16.5382 5.15922C16.7586 5.2632 16.9536 5.41428 17.1094 5.60181C17.2651 5.78933 17.3778 6.00874 17.4396 6.24456C17.5013 6.48038 17.5105 6.72687 17.4667 6.96665ZM12.9225 8.02999C12.8645 7.97191 12.7955 7.92583 12.7197 7.8944C12.6438 7.86297 12.5625 7.84679 12.4804 7.84679C12.3983 7.84679 12.317 7.86297 12.2411 7.8944C12.1653 7.92583 12.0964 7.97191 12.0383 8.02999L10.2583 9.80999L9.59167 9.14332C9.47384 9.02941 9.316 8.96634 9.15212 8.96769C8.98825 8.96903 8.83146 9.03469 8.71552 9.15052C8.59959 9.26634 8.53378 9.42307 8.53228 9.58694C8.53078 9.75082 8.59371 9.90872 8.7075 10.0267L9.81833 11.1383C9.93577 11.2552 10.0947 11.3208 10.2604 11.3208C10.4261 11.3208 10.5851 11.2552 10.7025 11.1383L12.9225 8.91665C12.981 8.85856 13.0273 8.78949 13.059 8.71341C13.0907 8.63732 13.107 8.55573 13.107 8.47332C13.107 8.39091 13.0907 8.30932 13.059 8.23323C13.0273 8.15715 12.981 8.08807 12.9225 8.02999Z" fill="white"/>
</svg>
