<svg width="18" height="18" viewBox="0 0 18 18" fill="none" xmlns="http://www.w3.org/2000/svg">
<g clip-path="url(#clip0_673_140)">
<path d="M8.2712 10.6956C8.2712 10.0548 7.751 9.53461 7.1102 9.53461H1.6112C0.970395 9.53461 0.450195 10.0548 0.450195 10.6956V15.6384C0.450195 16.5996 1.2296 17.379 2.1908 17.379H7.1102C7.751 17.379 8.2712 16.8588 8.2712 16.218V10.6956Z" fill="white"/>
<path d="M16.389 9.53461H10.8666C10.2258 9.53461 9.70557 10.0548 9.70557 10.6956V16.218C9.70557 16.8588 10.2258 17.379 10.8666 17.379H15.8094C16.7706 17.379 17.55 16.5996 17.55 15.6384V10.6956C17.55 10.0548 17.0298 9.53461 16.389 9.53461Z" fill="white"/>
<path d="M15.8096 0.621002H2.1908C1.2296 0.621002 0.450195 1.4004 0.450195 2.3616V7.281C0.450195 7.9218 0.970395 8.442 1.6112 8.442H16.391C17.0318 8.442 17.552 7.9218 17.552 7.281V2.3616C17.5502 1.4004 16.7708 0.621002 15.8096 0.621002Z" fill="white"/>
</g>
<defs>
<clipPath id="clip0_673_140">
<rect width="18" height="18" fill="white"/>
</clipPath>
</defs>
</svg>
