<svg width="20" height="20" viewBox="0 0 20 20" fill="none" xmlns="http://www.w3.org/2000/svg">
<g clip-path="url(#clip0_659_1435)">
<path d="M15.2734 9.76562L10.5859 11.3281L15.2734 12.8906L19.9609 11.3281L15.2734 9.76562Z" fill="white"/>
<path d="M0.0390625 11.3281L4.72656 12.8906L9.41406 11.3281L4.72656 9.76562L0.0390625 11.3281Z" fill="white"/>
<path d="M10.1853 0.0300891C10.065 -0.00998901 9.93496 -0.00998901 9.81469 0.0300891L5.3125 1.53083L10 3.09333L14.6875 1.53083L10.1853 0.0300891Z" fill="white"/>
<path d="M5.3125 20L9.41406 18.6328V12.5634L5.3125 13.9306V20Z" fill="white"/>
<path d="M0.0390625 18.2105C0.0390625 18.4628 0.20043 18.6867 0.439727 18.7664L4.14062 20V13.9306L0.0390625 12.5634V18.2105Z" fill="white"/>
<path d="M10.5859 18.6328L14.6875 20V13.9306L10.5859 12.5634V18.6328Z" fill="white"/>
<path d="M15.8594 20L19.5603 18.7664C19.7995 18.6866 19.9609 18.4627 19.9609 18.2105V12.5634L15.8594 13.9306V20Z" fill="white"/>
<path d="M5.3125 8.94531L9.41406 10.3125V4.13328L5.3125 2.76605V8.94531Z" fill="white"/>
<path d="M14.6875 8.94531V2.76605L10.5859 4.13328V10.3125L14.6875 8.94531Z" fill="white"/>
</g>
<defs>
<clipPath id="clip0_659_1435">
<rect width="20" height="20" fill="white"/>
</clipPath>
</defs>
</svg>
