<svg width="17" height="14" viewBox="0 0 17 14" fill="none" xmlns="http://www.w3.org/2000/svg">
<g clip-path="url(#clip0_228_4414)">
<path d="M4.25793 9.41731V10.058C4.25793 10.3426 4.48918 10.5727 4.77512 10.5727H9.29075C9.57668 10.5727 9.80793 10.3426 9.80793 10.058V9.41731C9.80793 8.3179 9.1595 7.37088 8.22512 6.92614C8.69231 6.57003 8.99387 6.01022 8.99387 5.37887C8.99387 4.30123 8.11575 3.4273 7.03293 3.4273C5.95012 3.4273 5.072 4.30123 5.072 5.37887C5.072 6.01022 5.37356 6.56848 5.84075 6.92614C4.90637 7.37088 4.25793 8.3179 4.25793 9.41731Z" fill="#DCB13A"/>
<path d="M16.7939 6.53893L15.208 5.11452C15.0252 4.94968 14.7611 4.9077 14.5346 5.00722C14.3096 5.10674 14.1643 5.32911 14.1643 5.57636V6.37876H10.4033C10.058 6.37876 9.77832 6.65712 9.77832 7.00078C9.77832 7.34444 10.058 7.62279 10.4033 7.62279H14.1643V8.42519C14.1643 8.67089 14.3096 8.89326 14.5346 8.99434C14.6158 9.0301 14.7018 9.04721 14.7877 9.04721C14.9393 9.04721 15.0893 8.99278 15.2064 8.88704L16.7924 7.46262C16.9236 7.34444 16.9986 7.1765 16.9986 7.00078C16.9986 6.82506 16.9236 6.65711 16.7924 6.53893H16.7939Z" fill="#DCB13A"/>
<path d="M13.0391 9.31778C12.7312 9.16228 12.3547 9.28513 12.1984 9.59147C11.2062 11.543 9.22656 12.7544 7.03281 12.7544C3.84375 12.7544 1.24844 10.1731 1.24844 6.99922C1.24844 3.82539 3.84531 1.24403 7.03437 1.24403C9.22812 1.24403 11.2078 2.45696 12.2 4.40698C12.3562 4.71332 12.7312 4.83617 13.0406 4.68066C13.3484 4.52516 13.4719 4.15195 13.3156 3.84405C12.1078 1.47418 9.70156 0 7.03437 0C3.15469 0 0 3.13962 0 7.00078C0 10.8619 3.15469 14 7.03437 14C9.70156 14 12.1078 12.5258 13.3156 10.1544C13.4719 9.84805 13.3484 9.47329 13.0406 9.31778H13.0391Z" fill="#DCB13A"/>
</g>
<defs>
<clipPath id="clip0_228_4414">
<rect width="17" height="14" fill="white"/>
</clipPath>
</defs>
</svg>
