<svg width="26" height="28" viewBox="0 0 26 28" fill="none" xmlns="http://www.w3.org/2000/svg">
<path d="M25.4108 24.4789L18.9966 17.7063C20.4392 15.6436 21.2342 13.0455 21.027 10.2368C20.6346 4.92079 16.6054 0.566677 11.5783 0.0536135C4.99206 -0.618492 -0.502224 5.12143 0.0365365 12.0559C0.443153 17.2898 4.30722 21.5276 9.24585 22.1527C11.8105 22.4773 14.2089 21.8128 16.1728 20.4921L22.7057 27.3898C24.5839 29.2518 27.178 26.4395 25.4108 24.4789ZM3.95608 12.3111C3.20289 7.5011 7.10475 3.3816 11.6606 4.1768C14.4206 4.65874 16.647 7.00898 17.1032 9.92295C17.8564 14.733 13.9545 18.8525 9.39863 18.0573C6.63836 17.5753 4.41229 15.2251 3.95608 12.3108V12.3111Z" fill="#DDDDDD"/>
</svg>
