<svg width="20" height="18" viewBox="0 0 20 18" fill="none" xmlns="http://www.w3.org/2000/svg">
<path d="M18.2563 6.39999C17.8916 6.34702 17.5435 6.21245 17.238 6.00632C16.9326 5.80019 16.6775 5.52779 16.4919 5.20942C16.3063 4.89106 16.1949 4.53492 16.166 4.16753C16.1371 3.80014 16.1915 3.43096 16.325 3.08749C16.4099 2.86295 16.4224 2.61746 16.3608 2.38545C16.2991 2.15343 16.1664 1.94653 15.9813 1.79374C15.1638 1.10728 14.2333 0.56802 13.2313 0.199993C13.0031 0.115232 12.754 0.104642 12.5194 0.169731C12.2849 0.23482 12.0769 0.372268 11.925 0.562493C11.6964 0.854776 11.4043 1.09117 11.0708 1.25375C10.7372 1.41633 10.3711 1.50082 10 1.50082C9.62897 1.50082 9.26279 1.41633 8.92926 1.25375C8.59572 1.09117 8.30359 0.854776 8.07501 0.562493C7.92315 0.372268 7.71513 0.23482 7.48059 0.169731C7.24604 0.104642 6.99694 0.115232 6.76876 0.199993C5.84356 0.539769 4.97851 1.02504 4.20626 1.63749C4.0116 1.7916 3.87139 2.00397 3.80616 2.24352C3.74093 2.48308 3.75411 2.73722 3.84376 2.96874C3.98799 3.3213 4.04757 3.70275 4.01775 4.08249C3.98792 4.46224 3.86951 4.82971 3.67201 5.15542C3.47452 5.48114 3.20343 5.75603 2.88051 5.95806C2.55758 6.16008 2.1918 6.28362 1.81251 6.31874C1.56627 6.34507 1.33498 6.44977 1.15271 6.61741C0.970433 6.78506 0.846801 7.0068 0.800014 7.24999C0.683637 7.82606 0.625014 8.41229 0.625014 8.99999C0.624158 9.49201 0.663876 9.98326 0.743764 10.4687C0.783523 10.7197 0.904855 10.9506 1.089 11.1257C1.27315 11.3008 1.50985 11.4104 1.76251 11.4375C2.15014 11.4739 2.5234 11.6026 2.85108 11.8128C3.17875 12.0231 3.4513 12.3087 3.64591 12.6459C3.84052 12.9831 3.95152 13.362 3.96963 13.7509C3.98775 14.1398 3.91244 14.5274 3.75001 14.8812C3.64372 15.1114 3.61735 15.3705 3.6751 15.6173C3.73285 15.8641 3.8714 16.0846 4.06876 16.2437C4.88133 16.9177 5.80287 17.4483 6.79376 17.8125C6.92048 17.8564 7.05343 17.8796 7.18751 17.8812C7.37137 17.8808 7.55245 17.8364 7.71557 17.7515C7.87869 17.6667 8.0191 17.544 8.12501 17.3937C8.34777 17.0692 8.64638 16.8039 8.99491 16.6209C9.34344 16.438 9.73137 16.3428 10.125 16.3437C10.5064 16.3442 10.8825 16.4338 11.2232 16.6052C11.5639 16.7766 11.8598 17.0252 12.0875 17.3312C12.239 17.5348 12.4535 17.6826 12.6977 17.7515C12.9418 17.8205 13.202 17.8068 13.4375 17.7125C14.3436 17.3478 15.1871 16.8438 15.9375 16.2187C16.126 16.0629 16.2603 15.8513 16.3209 15.6143C16.3815 15.3773 16.3655 15.1272 16.275 14.9C16.128 14.552 16.0639 14.1746 16.0878 13.7975C16.1117 13.4205 16.2228 13.0542 16.4125 12.7275C16.6023 12.4008 16.8653 12.1227 17.1809 11.9151C17.4966 11.7075 17.8561 11.5761 18.2313 11.5312C18.4745 11.4976 18.7007 11.3874 18.8771 11.2166C19.0536 11.0458 19.171 10.8233 19.2125 10.5812C19.3129 10.0599 19.3673 9.53082 19.375 8.99999C19.3751 8.44009 19.3228 7.8814 19.2188 7.33124C19.1766 7.09456 19.0609 6.87718 18.8881 6.71001C18.7153 6.54284 18.4942 6.43436 18.2563 6.39999ZM13.125 8.99999C13.125 9.61806 12.9417 10.2222 12.5984 10.7361C12.255 11.2501 11.7669 11.6506 11.1959 11.8871C10.6249 12.1236 9.99655 12.1855 9.39036 12.0649C8.78417 11.9444 8.22734 11.6467 7.79031 11.2097C7.35327 10.7727 7.05564 10.2158 6.93506 9.60965C6.81448 9.00346 6.87637 8.37513 7.11289 7.80411C7.34941 7.23309 7.74995 6.74503 8.26386 6.40165C8.77776 6.05827 9.38195 5.87499 10 5.87499C10.8288 5.87499 11.6237 6.20423 12.2097 6.79028C12.7958 7.37634 13.125 8.17119 13.125 8.99999Z" fill="white"/>
</svg>
