<svg width="19" height="19" viewBox="0 0 19 19" fill="none" xmlns="http://www.w3.org/2000/svg">
<path fill-rule="evenodd" clip-rule="evenodd" d="M15.7414 2.71894C14.009 0.98322 11.7059 0.026957 9.25211 0.0258789C4.19591 0.0258789 0.0796762 4.14525 0.0775227 9.20795C0.0775227 10.8262 0.49959 12.4066 1.30173 13.7984L0 18.5571L4.86347 17.2796C6.20396 18.0116 7.71243 18.3965 9.2478 18.3976H9.25103C14.3072 18.3976 18.4235 14.2782 18.4256 9.21442C18.4256 6.76069 17.4727 4.45358 15.7414 2.71786V2.71894ZM9.25211 16.8484H9.24888C7.88039 16.8484 6.53882 16.4796 5.36737 15.7843L5.0885 15.6193L2.20293 16.3772L2.97278 13.5602L2.79189 13.2713C2.02851 12.0563 1.62582 10.6515 1.62582 9.20903C1.62798 5.00017 5.04866 1.57725 9.25426 1.57725C11.2914 1.57725 13.2058 2.37287 14.6453 3.81536C16.0849 5.25784 16.8773 7.17576 16.8762 9.2155C16.8741 13.4243 13.4534 16.8484 9.25103 16.8484H9.25211ZM13.434 11.1313C13.2047 11.0159 12.0774 10.4618 11.8674 10.3852C11.6575 10.3087 11.5046 10.2699 11.3517 10.5006C11.1988 10.7302 10.7595 11.2466 10.626 11.4008C10.4925 11.5539 10.359 11.5733 10.1296 11.4579C9.90029 11.3426 9.16167 11.1011 8.28631 10.3195C7.60476 9.71142 7.145 8.95999 7.01149 8.73036C6.87798 8.50072 6.99749 8.37674 7.11162 8.26247C7.21499 8.16005 7.34096 7.99402 7.45509 7.86034C7.56922 7.72666 7.60798 7.63071 7.68443 7.47762C7.76087 7.32453 7.72211 7.19085 7.66505 7.07549C7.60798 6.96014 7.14931 5.83138 6.95873 5.37211C6.77246 4.92471 6.58404 4.98508 6.44299 4.97861C6.30948 4.97214 6.15659 4.97107 6.0037 4.97107C5.85081 4.97107 5.60208 5.0282 5.39213 5.25784C5.18217 5.48747 4.58999 6.04268 4.58999 7.17252C4.58999 8.30236 5.41151 9.39338 5.52564 9.54647C5.63977 9.69956 7.14177 12.0174 9.44161 13.0114C9.98857 13.2475 10.416 13.3888 10.7487 13.4944C11.2978 13.6691 11.7974 13.6443 12.1926 13.585C12.633 13.5192 13.5492 13.0298 13.7398 12.494C13.9304 11.9582 13.9304 11.4989 13.8733 11.4029C13.8163 11.307 13.6634 11.2498 13.434 11.1345V11.1313Z" fill="#949494"/>
</svg>
