<svg width="32" height="32" viewBox="0 0 32 32" fill="none" xmlns="http://www.w3.org/2000/svg">
  <!-- Shield with golden outline -->
  <path d="M8 4C8 2.89543 8.89543 2 10 2H14C15.1046 2 16 2.89543 16 4V8C16 9.10457 15.1046 10 14 10H10C8.89543 10 8 9.10457 8 4Z" fill="#D4AF37" stroke="#D4AF37" stroke-width="1"/>
  
  <!-- Central golden arrow/V shape -->
  <path d="M10 6L12 4L14 6L12 8L10 6Z" fill="#D4AF37"/>
  
  <!-- Left green wing/leaf -->
  <path d="M4 6C4 4.89543 4.89543 4 6 4C7.10457 4 8 4.89543 8 6C8 7.10457 7.10457 8 6 8C4.89543 8 4 7.10457 4 6Z" fill="#6B7C32"/>
  
  <!-- Right green wing/leaf -->
  <path d="M16 6C16 4.89543 16.8954 4 18 4C19.1046 4 20 4.89543 20 6C20 7.10457 19.1046 8 18 8C16.8954 8 16 7.10457 16 6Z" fill="#6B7C32"/>
</svg>

