<svg width="231" height="48" viewBox="0 0 231 48" fill="none" xmlns="http://www.w3.org/2000/svg">
  <!-- Shield with golden outline -->
  <path d="M12 8C12 6.89543 12.8954 6 14 6H18C19.1046 6 20 6.89543 20 8V12C20 13.1046 19.1046 14 18 14H14C12.8954 14 12 13.1046 12 8Z" fill="#D4AF37" stroke="#D4AF37" stroke-width="1"/>
  
  <!-- Central golden arrow/V shape -->
  <path d="M14 10L16 8L18 10L16 12L14 10Z" fill="#D4AF37"/>
  
  <!-- Left green wing/leaf -->
  <path d="M8 10C8 8.89543 8.89543 8 10 8C11.1046 8 12 8.89543 12 10C12 11.1046 11.1046 12 10 12C8.89543 12 8 11.1046 8 10Z" fill="#6B7C32"/>
  
  <!-- Right green wing/leaf -->
  <path d="M20 10C20 8.89543 20.8954 8 22 8C23.1046 8 24 8.89543 24 10C24 11.1046 23.1046 12 22 12C20.8954 12 20 11.1046 20 10Z" fill="#6B7C32"/>
  
  <!-- DEFENCE text in olive green -->
  <text x="40" y="20" font-family="Arial, sans-serif" font-size="16" font-weight="bold" fill="#6B7C32" text-transform="uppercase">DEFENCE</text>
  
  <!-- CART text in golden yellow -->
  <text x="40" y="36" font-family="Arial, sans-serif" font-size="16" font-weight="bold" fill="#D4AF37" text-transform="uppercase">CART</text>
</svg>

